<svg xmlns="http://www.w3.org/2000/svg" viewBox="0 0 1200 360" role="img" aria-labelledby="cb-hero-title cb-hero-desc">
  <title id="cb-hero-title">chrome-bridge: trusted-event Chrome MV3 automation bridge</title>
  <desc id="cb-hero-desc">Catppuccin Mocha card. Left panel shows the wordmark chrome-bridge in mauve over a monospaced tagline. Right panel shows a mauve MV3 puzzle-piece glyph connected by a blue arrow to a terminal prompt glyph, with a small Chrome devtools wedge anchoring the lower-right corner.</desc>
  <rect width="1200" height="360" fill="#1e1e2e"/>
  <rect x="0" y="0" width="1200" height="3" fill="#cba6f7"/>
  <g font-family="ui-serif,Georgia,'Iowan Old Style','Apple Garamond',serif" fill="#cdd6f4">
    <text x="72" y="170" font-size="92" font-weight="700" letter-spacing="-3">chrome-bridge</text>
  </g>
  <g font-family="ui-monospace,'JetBrains Mono','Fira Code',Menlo,monospace" fill="#a6adc8">
    <text x="76" y="218" font-size="20">trusted-event chrome mv3 bridge</text>
    <text x="76" y="246" font-size="20">extension + python relay on :9224</text>
  </g>
  <g font-family="ui-monospace,'JetBrains Mono','Fira Code',Menlo,monospace" fill="#6c7086">
    <text x="76" y="296" font-size="14">git clone github.com/yolo-labz/chrome-bridge</text>
  </g>
  <g transform="translate(720,96)" fill="none" stroke-linecap="round" stroke-linejoin="round">
    <g transform="translate(0,16)">
      <path d="M0,40 V16 Q0,0 16,0 H64 V20 Q64,32 76,32 Q88,32 88,20 V0 H136 Q152,0 152,16 V64 H172 Q184,64 184,76 Q184,88 172,88 H152 V136 Q152,152 136,152 H88 V132 Q88,120 76,120 Q64,120 64,132 V152 H16 Q0,152 0,136 V88 H-20 Q-32,88 -32,76 Q-32,64 -20,64 H0 Z" fill="#cba6f7" opacity="0.92"/>
      <path d="M28,40 H124 M28,72 H124 M28,104 H100" stroke="#1e1e2e" stroke-width="3" opacity="0.55"/>
    </g>
    <g transform="translate(200,80)">
      <line x1="0" y1="24" x2="78" y2="24" stroke="#89b4fa" stroke-width="3"/>
      <path d="M64,12 L88,24 L64,36" fill="none" stroke="#89b4fa" stroke-width="3"/>
    </g>
    <g transform="translate(304,16)">
      <path d="M0,16 Q0,0 16,0 H168 Q184,0 184,16 V136 Q184,152 168,152 H16 Q0,152 0,136 Z" fill="#181825" stroke="#cba6f7" stroke-width="2.2"/>
      <g font-family="ui-monospace,'JetBrains Mono','Fira Code',Menlo,monospace" font-size="14" fill="#cdd6f4">
        <text x="22" y="48">$ cb dispatch click</text>
        <text x="22" y="78" fill="#89b4fa">→ relay :9224</text>
        <text x="22" y="108" fill="#a6e3a1">ok isTrusted=true</text>
        <text x="22" y="132" fill="#6c7086">133ms</text>
      </g>
    </g>
  </g>
  <g transform="translate(1060,232)" fill="#a6adc8" opacity="0.55">
    <path d="M44,0 A44,44 0 0,1 80,68 L60,40 H44 A24,24 0 1,0 44,88 L80,88 A44,44 0 0,1 44,0 Z"/>
    <circle cx="44" cy="44" r="14" fill="#1e1e2e"/>
    <circle cx="44" cy="44" r="6" fill="#a6adc8"/>
  </g>
  <g font-family="ui-monospace,'JetBrains Mono','Fira Code',Menlo,monospace" fill="#585b70">
    <text x="1128" y="338" font-size="11" text-anchor="end">yolo-labz/chrome-bridge</text>
  </g>
</svg>
